<svg width="180" height="180" viewBox="0 0 180 180" fill="none" xmlns="http://www.w3.org/2000/svg">
<g clip-path="url(#clip0_4_189)">
<g opacity="0.33">
<path d="M37.049 172.57H22.8813V172.696H37.049V172.57Z" fill="#E6E6E6"/>
<path d="M18.3982 172.57H10.1894V172.696H18.3982V172.57Z" fill="#E6E6E6"/>
<path d="M73.7213 172.918H65.5125V173.044H73.7213V172.918Z" fill="#E6E6E6"/>
<path d="M116.524 174.976H98.0483V175.102H116.524V174.976Z" fill="#E6E6E6"/>
<path d="M94.2413 177.235H91.5336V177.361H94.2413V177.235Z" fill="#E6E6E6"/>
<path d="M177.583 174.424H137.51V174.55H177.583V174.424Z" fill="#E6E6E6"/>
<path d="M85.0358 142.477H2.43827C1.79121 142.476 1.17104 142.172 0.713893 141.633C0.256751 141.093 -9.92302e-07 140.362 0 139.6V2.85156C0.00563281 2.09384 0.26487 1.36934 0.721404 0.835425C1.17794 0.301508 1.7949 0.00129801 2.43827 0H85.0358C85.6836 0 86.3048 0.303085 86.7629 0.84258C87.221 1.38207 87.4783 2.11379 87.4783 2.87675V139.6C87.4783 140.363 87.221 141.095 86.7629 141.634C86.3048 142.174 85.6836 142.477 85.0358 142.477ZM2.43827 0.100762C1.81957 0.102097 1.2266 0.3925 0.789513 0.908229C0.352426 1.42396 0.106941 2.12287 0.106942 2.85156V139.6C0.106941 140.329 0.352426 141.028 0.789513 141.544C1.2266 142.059 1.81957 142.35 2.43827 142.351H85.0358C85.6549 142.35 86.2483 142.06 86.686 141.544C87.1238 141.028 87.3702 140.329 87.3714 139.6V2.85156C87.3702 2.12241 87.1238 1.42351 86.686 0.907922C86.2483 0.392336 85.6549 0.102094 85.0358 0.100762H2.43827Z" fill="#E6E6E6"/>
<path d="M177.566 142.477H94.9643C94.3168 142.476 93.6962 142.172 93.2384 141.633C92.7806 141.094 92.5229 140.363 92.5217 139.6V2.85156C92.5285 2.09338 92.7887 1.36889 93.2459 0.835109C93.7031 0.301332 94.3205 0.00128385 94.9643 0H177.566C178.209 0.00262207 178.825 0.303418 179.28 0.837193C179.736 1.37097 179.994 2.09471 180 2.85156V139.6C180 140.362 179.744 141.092 179.288 141.631C178.831 142.17 178.212 142.474 177.566 142.477ZM94.9643 0.100762C94.3452 0.102094 93.7518 0.392336 93.314 0.907922C92.8762 1.42351 92.6298 2.12241 92.6287 2.85156V139.6C92.6298 140.329 92.8762 141.028 93.314 141.544C93.7518 142.06 94.3452 142.35 94.9643 142.351H177.566C178.185 142.35 178.779 142.06 179.216 141.544C179.654 141.028 179.901 140.329 179.902 139.6V2.85156C179.901 2.12241 179.654 1.42351 179.216 0.907922C178.779 0.392336 178.185 0.102094 177.566 0.100762H94.9643Z" fill="#E6E6E6"/>
<path d="M98.0399 121.911H88.6333V165.859H98.0399V121.911Z" fill="#E0E0E0"/>
<path d="M96.2518 165.859H98.0399V159.874H94.3782L96.2518 165.859Z" fill="#FAFAFA"/>
<path d="M56.8203 121.911H47.4137V165.859H56.8203V121.911Z" fill="#E0E0E0"/>
<path d="M98.0399 121.911H55.2632V162.186H98.0399V121.911Z" fill="#FAFAFA"/>
<path d="M96.4871 123.892V134.547H56.8032V123.892H96.4743H96.4871ZM96.6411 123.695H56.6492V134.739H96.6539V123.695H96.6411Z" fill="#E0E0E0"/>
<path d="M57.047 165.859H55.2632V159.874H58.9206L57.047 165.859Z" fill="#FAFAFA"/>
<path d="M75.7062 129.217C75.7062 129.437 75.7616 129.652 75.8655 129.835C75.9694 130.018 76.117 130.161 76.2898 130.245C76.4625 130.33 76.6526 130.352 76.836 130.309C77.0194 130.266 77.1878 130.16 77.32 130.004C77.4522 129.848 77.5423 129.65 77.5787 129.434C77.6152 129.218 77.5965 128.994 77.5249 128.791C77.4534 128.587 77.3322 128.413 77.1768 128.291C77.0213 128.169 76.8385 128.103 76.6515 128.103C76.4008 128.103 76.1604 128.221 75.9831 128.429C75.8058 128.638 75.7062 128.921 75.7062 129.217Z" fill="#E6E6E6"/>
<path d="M96.4871 136.718V147.374H56.8032V136.718H96.4743H96.4871ZM96.6411 136.527H56.6492V147.57H96.6539V136.532L96.6411 136.527Z" fill="#E0E0E0"/>
<path d="M75.7062 142.074C75.7062 142.294 75.7616 142.509 75.8655 142.693C75.9694 142.876 76.117 143.018 76.2898 143.103C76.4625 143.187 76.6526 143.209 76.836 143.166C77.0194 143.123 77.1878 143.017 77.32 142.861C77.4522 142.706 77.5423 142.507 77.5787 142.291C77.6152 142.075 77.5965 141.851 77.5249 141.648C77.4534 141.444 77.3322 141.271 77.1768 141.148C77.0213 141.026 76.8385 140.961 76.6515 140.961C76.4008 140.961 76.1604 141.078 75.9831 141.287C75.8058 141.495 75.7062 141.779 75.7062 142.074Z" fill="#E6E6E6"/>
<path d="M96.4871 149.551V160.211H56.8032V149.551H96.4743H96.4871ZM96.6411 149.354H56.6492V160.403H96.6539V149.354H96.6411Z" fill="#E0E0E0"/>
<path d="M75.7062 154.881C75.707 155.101 75.7632 155.316 75.8676 155.498C75.972 155.68 76.1199 155.822 76.2927 155.906C76.4655 155.989 76.6555 156.011 76.8386 155.967C77.0217 155.924 77.1897 155.817 77.3215 155.661C77.4533 155.505 77.5429 155.307 77.579 155.091C77.6152 154.875 77.5962 154.652 77.5245 154.449C77.4529 154.245 77.3317 154.072 77.1763 153.95C77.021 153.828 76.8383 153.762 76.6515 153.762C76.527 153.762 76.4038 153.791 76.2888 153.848C76.1738 153.904 76.0694 153.986 75.9816 154.09C75.8937 154.194 75.8242 154.317 75.7769 154.453C75.7297 154.589 75.7056 154.734 75.7062 154.881Z" fill="#E6E6E6"/>
<path d="M51.0753 96.3887H41.6687V165.864H51.0753V96.3887Z" fill="#E0E0E0"/>
<path d="M49.2873 165.859H51.0754V159.874H47.418L49.2873 165.859Z" fill="#FAFAFA"/>
<path d="M15.9215 96.3887H6.51489V165.864H15.9215V96.3887Z" fill="#E0E0E0"/>
<path d="M51.0753 96.3887H14.3601V162.191H51.0753V96.3887Z" fill="#FAFAFA"/>
<path d="M49.4926 98.2427V113.14H15.9428V98.2427H49.4926ZM49.6893 98.016H15.7375V113.357H49.6808V98.021L49.6893 98.016Z" fill="#E0E0E0"/>
<path d="M49.4927 114.959V154.473H33.5113V114.959H49.4927ZM49.6894 114.727H33.3188V154.704H49.6894V114.727Z" fill="#E0E0E0"/>
<path d="M31.9242 114.959V154.473H15.9428V114.959H31.9242ZM32.1167 114.727H15.7375V154.704H32.1081V114.727H32.1167Z" fill="#E0E0E0"/>
<path d="M16.1482 165.859H14.3601V159.874H18.0218L16.1482 165.859Z" fill="#FAFAFA"/>
<path d="M31.7703 105.699C31.7694 105.92 31.8244 106.137 31.9282 106.322C32.0321 106.506 32.1801 106.65 32.3535 106.736C32.527 106.821 32.7181 106.844 32.9025 106.802C33.087 106.759 33.2566 106.653 33.3899 106.497C33.5231 106.34 33.614 106.141 33.651 105.924C33.688 105.707 33.6694 105.482 33.5977 105.277C33.5259 105.073 33.4042 104.898 33.248 104.774C33.0917 104.651 32.9079 104.586 32.7199 104.586C32.4688 104.586 32.2279 104.703 32.0499 104.911C31.872 105.12 31.7714 105.403 31.7703 105.699Z" fill="#E6E6E6"/>
<path d="M35.1582 133.776C35.1582 133.998 35.214 134.214 35.3185 134.398C35.423 134.582 35.5716 134.725 35.7454 134.81C35.9191 134.894 36.1103 134.916 36.2946 134.873C36.479 134.829 36.6482 134.722 36.7808 134.565C36.9134 134.408 37.0035 134.209 37.0397 133.991C37.0759 133.774 37.0564 133.549 36.9839 133.345C36.9114 133.14 36.789 132.966 36.6323 132.844C36.4755 132.721 36.2915 132.657 36.1035 132.658C35.979 132.658 35.8557 132.687 35.7408 132.743C35.6258 132.799 35.5214 132.882 35.4335 132.986C35.3457 133.09 35.2761 133.213 35.2289 133.349C35.1816 133.484 35.1576 133.63 35.1582 133.776Z" fill="#E6E6E6"/>
<path d="M28.3866 133.776C28.3875 133.996 28.4436 134.211 28.548 134.393C28.6524 134.576 28.8003 134.718 28.9732 134.801C29.146 134.885 29.3359 134.906 29.519 134.863C29.7021 134.819 29.8702 134.713 30.0019 134.557C30.1337 134.401 30.2233 134.202 30.2595 133.987C30.2956 133.771 30.2766 133.547 30.205 133.344C30.1333 133.141 30.0121 132.967 29.8567 132.845C29.7014 132.723 29.5188 132.658 29.332 132.658C29.2075 132.658 29.0842 132.687 28.9692 132.743C28.8542 132.799 28.7498 132.882 28.662 132.986C28.5741 133.09 28.5046 133.213 28.4573 133.349C28.4101 133.484 28.386 133.63 28.3866 133.776Z" fill="#E6E6E6"/>
<path d="M27.3171 77.0171H23.3518C23.7172 79.2826 23.9473 81.5755 24.0405 83.879C24.0405 86.398 21.0204 96.3885 25.3238 96.3885C29.6271 96.3885 26.6071 86.4232 26.6071 83.879C26.7073 81.5749 26.9445 79.282 27.3171 77.0171Z" fill="#E0E0E0"/>
<path d="M12.2299 87.2344V90.2572C12.2344 91.8777 12.7829 93.4303 13.7559 94.5762C14.7288 95.7221 16.047 96.3681 17.4229 96.3735H19.9895C21.3655 96.3681 22.6837 95.7221 23.6566 94.5762C24.6295 93.4303 25.1781 91.8777 25.1826 90.2572V87.2344H12.2299Z" fill="#F5F5F5"/>
<path d="M67.3562 115.503C67.3562 119.03 70.7056 121.911 74.7993 121.911H78.4953C82.589 121.911 85.9384 119.03 85.9384 115.503H67.3562Z" fill="#E0E0E0"/>
<path d="M165.289 110.334C163.047 112.49 159.95 116.435 157.119 121.987C155.228 125.685 154.09 129.544 153.59 134.673C153.59 128.879 153.62 122.657 153.637 116.783C154.206 115.271 155.506 111.785 156.439 109.034C159.548 99.8498 160.716 97.5877 163.509 89.6678C167.244 79.0878 171.068 66.5632 169.973 67.5657C167.74 69.6062 159.185 88.4738 158.261 91.1742C155.742 98.3808 154.185 106.003 153.645 113.77C153.645 108.228 153.679 103.19 153.697 99.2805C153.756 86.5291 153.94 82.413 154.03 81.1434C154.377 80.4985 154.783 79.7478 155.023 79.3448C157.033 75.9189 157.807 73.0069 159.698 67.8982C162.384 60.6686 164.694 47.8265 164.019 48.4714C161.204 51.1718 158.988 56.9656 156.071 64.3565C153.153 71.7473 153.987 75.9944 153.41 82.3021C153.29 83.5415 153.196 88.2168 153.128 94.6908C152.375 87.7886 150.955 83.2443 148.367 79.113C145.184 74.0296 142.104 70.5987 139.845 68.8051C137.587 67.0115 143.747 79.4959 146.69 84.927C149.312 89.7837 151.729 94.061 153.106 98.2779C153.033 107.059 152.999 118.173 152.999 128.506C152.323 123.801 151.22 118.727 149.748 114.803C147.977 110.087 145.257 102.852 143.088 100.399C142.57 99.8095 145.355 113.881 147.143 117.619C148.931 121.357 150.244 124.889 151.369 127.01C151.63 127.514 152.503 129.413 152.999 130.512C152.999 143.142 153.059 154.286 153.153 158.08H153.615C153.585 157.103 153.577 150.674 153.59 142.17C154.706 137.555 157.256 132.285 159.36 127.479C161.653 122.274 167.53 108.193 165.289 110.334Z" fill="#E0E0E0"/>
<path d="M160.083 165.859H146.677L145.663 150.382H161.097L160.083 165.859Z" fill="#F0F0F0"/>
<path d="M162.094 152.186H144.662L144.166 146.961H162.594L162.094 152.186Z" fill="#F5F5F5"/>
<path d="M36.8093 10.3281H12.833V41.3375H36.8093V10.3281Z" fill="#E0E0E0"/>
<path d="M39.4058 10.3281H14.6381V41.3375H39.4058V10.3281Z" fill="#F5F5F5"/>
<path d="M37.3312 38.8941V12.7716L16.7129 12.7716V38.8941H37.3312Z" fill="white"/>
<path d="M32.3307 32.5561V19.0994H21.7092V32.5561H32.3307Z" fill="#F5F5F5"/>
<path d="M159.061 13.9404H136.787V42.7482H159.061V13.9404Z" fill="#E0E0E0"/>
<path d="M161.473 13.9404H138.468V42.7482H161.473V13.9404Z" fill="#F5F5F5"/>
<path d="M159.548 40.4761V16.2126H140.397V40.4761H159.548Z" fill="white"/>
<path d="M149.971 35.3826C153.271 35.3826 155.947 32.2314 155.947 28.3444C155.947 24.4573 153.271 21.3062 149.971 21.3062C146.67 21.3062 143.995 24.4573 143.995 28.3444C143.995 32.2314 146.67 35.3826 149.971 35.3826Z" fill="#F5F5F5"/>
<path d="M61.7182 28.8177H43.9317V51.8216H61.7182V28.8177Z" fill="#E0E0E0"/>
<path d="M63.6432 28.8177H45.2706V51.8216H63.6432V28.8177Z" fill="#F5F5F5"/>
<path d="M62.1033 50.0081V30.6316H46.8106V50.0081H62.1033Z" fill="white"/>
<path d="M54.4589 35.4176L50.2754 43.9521H58.6425L54.4589 35.4176Z" fill="#F5F5F5"/>
</g>
<path d="M87.3344 180C135.551 180 174.638 177.447 174.638 174.297C174.638 171.147 135.551 168.594 87.3344 168.594C39.1181 168.594 0.0310669 171.147 0.0310669 174.297C0.0310669 177.447 39.1181 180 87.3344 180Z" fill="#F5F5F5"/>
<path d="M132.024 46.9292L127.557 44.9139C127.557 44.9139 121.663 56.9398 119.975 57.5495C117.678 58.3757 112.923 60.6731 110.105 61.0761C109.722 61.5799 109.096 63.1468 109.155 63.7161C112.941 65.1318 121.262 63.2526 123.045 61.7714C127.102 58.411 132.024 46.9292 132.024 46.9292Z" fill="#E58A7B"/>
<path d="M133.397 44.1934C134.23 47.6344 129.719 54.5568 129.719 54.5568L123.807 50.8487C123.807 50.8487 124.914 48.0022 126.265 45.1053C128.431 40.4249 132.447 40.2688 133.397 44.1934Z" fill="#407BFF"/>
<path opacity="0.2" d="M133.397 44.1934C134.23 47.6344 129.719 54.5568 129.719 54.5568L123.807 50.8487C123.807 50.8487 124.914 48.0022 126.265 45.1053C128.431 40.4249 132.447 40.2688 133.397 44.1934Z" fill="black"/>
<path opacity="0.2" d="M126.152 52.3299L128.48 53.791L128.89 45.7955C127.535 46.9593 126.58 50.4658 126.152 52.3299Z" fill="black"/>
<path d="M129.507 41.6039C129.507 41.6039 124.905 53.0605 127.589 74.3917H145.721C146.009 71.2782 145.055 56.0833 148.508 41.4124C146.519 40.9775 144.507 40.6897 142.484 40.5509C139.918 40.3846 137.345 40.3846 134.78 40.5509C133.001 40.753 131.238 41.105 129.507 41.6039Z" fill="#407BFF"/>
<path opacity="0.2" d="M129.507 41.6039C129.507 41.6039 124.905 53.0605 127.589 74.3917H145.721C146.009 71.2782 145.055 56.0833 148.508 41.4124C146.519 40.9775 144.507 40.6897 142.484 40.5509C139.918 40.3846 137.345 40.3846 134.78 40.5509C133.001 40.753 131.238 41.105 129.507 41.6039Z" fill="black"/>
<g style="mix-blend-mode:multiply">
<path d="M125.301 174.75C125.274 175.294 132.15 175.733 140.656 175.733C149.161 175.733 156.086 175.294 156.113 174.75C156.141 174.206 149.269 173.773 140.759 173.773C132.249 173.773 125.333 174.211 125.301 174.75Z" fill="#E8ECF1"/>
</g>
<path d="M137.405 160.454L134.189 161.847L136.959 169.854L140.175 168.461L137.405 160.454Z" fill="#E58A7B"/>
<path d="M151.746 170.876H148.355L147.113 162.095H150.503L151.746 170.876Z" fill="#E58A7B"/>
<path d="M148.121 170.438H151.931C151.997 170.438 152.06 170.464 152.111 170.512C152.161 170.56 152.195 170.627 152.205 170.7L152.696 174.07C152.706 174.155 152.7 174.241 152.678 174.323C152.656 174.404 152.619 174.48 152.568 174.544C152.518 174.608 152.456 174.659 152.386 174.694C152.316 174.729 152.241 174.746 152.165 174.745C150.836 174.72 150.197 174.629 148.522 174.629C147.491 174.629 145.37 174.75 143.938 174.75C142.506 174.75 142.412 173.178 143.002 173.032C145.649 172.393 146.676 171.521 147.558 170.675C147.714 170.522 147.914 170.437 148.121 170.438Z" fill="#263238"/>
<path d="M136.864 169.138L140.467 167.959C140.531 167.939 140.599 167.944 140.661 167.973C140.722 168.002 140.773 168.054 140.804 168.12L142.155 171.143C142.186 171.22 142.203 171.303 142.202 171.388C142.202 171.472 142.185 171.555 142.153 171.631C142.12 171.708 142.074 171.775 142.016 171.829C141.958 171.883 141.89 171.922 141.817 171.944C140.507 172.347 139.629 172.594 137.99 173.128C136.86 173.496 135.707 174.095 134.591 174.493C133.816 174.771 131.997 174.781 131.056 174.781C129.665 174.781 129.354 173.138 129.953 173.063C131.461 172.876 131.664 172.962 132.497 172.493C133.86 171.827 135.095 170.872 136.135 169.682C136.331 169.432 136.583 169.244 136.864 169.138Z" fill="#263238"/>
<path d="M110.672 61.0558L106.944 59.3076L105.408 63.9326C106.936 64.193 108.491 64.193 110.019 63.9326L110.672 61.0558Z" fill="#E58A7B"/>
<path d="M104.17 59.1868L104.071 62.26L105.408 63.9226L106.944 59.2976L104.17 59.1868Z" fill="#E58A7B"/>
<path d="M137.846 161.134L134.62 162.527L136.049 166.668L139.275 165.274L137.846 161.134Z" fill="#CF6F64"/>
<path d="M150.503 162.095H147.113L147.756 166.624H151.147L150.503 162.095Z" fill="#CF6F64"/>
<path opacity="0.2" d="M127.012 68.6232C127.08 69.535 127.157 70.4671 127.256 71.4243L140.737 66.5273C142.842 65.8292 144.672 64.3488 145.924 62.3306C145.978 60.9854 146.045 59.5697 146.149 58.0936C146.194 57.3781 146.248 56.6426 146.307 55.897C146.365 55.1513 146.446 54.3251 146.532 53.5291L127.012 68.6232Z" fill="black"/>
<path d="M131.416 52.0983L130.966 52.0379C131.231 49.5188 132.911 47.5338 134.681 47.5842V48.088C133.132 48.0527 131.655 49.8413 131.416 52.0983Z" fill="white"/>
<path d="M133.816 56.7483H133.74V56.2445C135.288 56.31 136.743 54.5013 136.981 52.2493L137.432 52.3097C137.193 54.7733 135.568 56.7483 133.816 56.7483Z" fill="white"/>
<path d="M142.232 30.8425C141.597 33.6185 140.849 38.7019 142.484 40.5509C142.484 40.5509 141.34 43.3672 136.734 43.3672C132.524 43.3672 134.78 40.5509 134.78 40.5509C137.58 39.8154 137.63 37.5281 137.261 35.3617L142.232 30.8425Z" fill="#E58A7B"/>
<path d="M140.205 32.6864L137.265 35.3616C137.356 35.8594 137.409 36.3651 137.423 36.873C138.283 37.8303 140.007 35.407 140.183 34.1676C140.272 33.6797 140.28 33.1774 140.205 32.6864Z" fill="#CF6F64"/>
<path d="M132.209 30.8072C132.413 31.2039 132.689 31.5492 133.018 31.8214C133.347 32.0936 133.723 32.2869 134.122 32.3891C135.203 32.6561 135.743 31.5427 135.446 30.4243C135.18 29.4166 134.293 28.0614 133.195 28.2932C132.959 28.3474 132.739 28.4639 132.552 28.633C132.365 28.8021 132.218 29.0188 132.121 29.265C132.024 29.5112 131.982 29.7797 131.997 30.048C132.012 30.3163 132.085 30.5766 132.209 30.8072Z" fill="#CF6F64"/>
<path d="M133.996 21.9251C132.312 22.7867 131.718 30.2733 133.834 31.3816C135.95 32.49 137.184 20.2878 133.996 21.9251Z" fill="#263238"/>
<path d="M142.745 26.6659C142.34 30.4243 142.295 32.636 140.494 34.5606C139.935 35.1992 139.23 35.6529 138.456 35.8715C137.682 36.09 136.869 36.065 136.107 35.7992C135.345 35.5334 134.664 35.0371 134.138 34.3651C133.612 33.6931 133.262 32.8715 133.127 31.9911C132.582 28.6156 133.334 23.0385 136.702 21.5422C137.41 21.1929 138.188 21.0618 138.956 21.1624C139.725 21.263 140.455 21.5917 141.071 22.1144C141.688 22.6371 142.168 23.3348 142.462 24.1351C142.756 24.9354 142.854 25.8092 142.745 26.6659Z" fill="#E58A7B"/>
<path d="M137.211 23.8699C139.706 23.1595 141.538 22.6758 140.881 24.9984C140.012 28.1018 138.967 31.1045 140.368 31.2406C141.223 31.3262 145.005 29.5327 144.524 27.7139C144.105 26.132 145.874 25.6987 146.19 24.8976C147.356 21.9957 144.019 22.3786 144.614 20.6153C145.208 18.8519 141.912 16.0104 140.111 17.4261C137.18 19.7134 132.15 19.6782 134.793 15.9147C136.689 13.2294 133.307 13.7786 133.307 13.7786C133.307 13.7786 135.351 15.1338 131.911 17.2297C128.273 19.4666 131.61 25.477 137.211 23.8699Z" fill="#263238"/>
<path d="M144.069 30.8072C143.576 31.6045 142.836 32.1683 141.993 32.3891C140.881 32.6561 140.453 31.5427 140.872 30.4243C141.246 29.4166 142.272 28.0614 143.335 28.2932C144.398 28.5249 144.641 29.8197 144.069 30.8072Z" fill="#E58A7B"/>
<path d="M127.589 74.3917C127.589 74.3917 124.545 104.872 124.306 116.44C124.063 128.471 134.622 166.009 134.622 166.009L140.025 163.49C140.025 163.49 133.721 129.191 134.622 117.377C135.577 104.494 139.521 74.4119 139.521 74.4119L127.589 74.3917Z" fill="#407BFF"/>
<path opacity="0.2" d="M135.153 82.76C132.726 88.3926 134.361 99.5318 135.676 106.132C136.175 101.471 136.77 96.4132 137.333 91.7329C137.279 84.5385 136.779 78.9815 135.153 82.76Z" fill="black"/>
<path d="M139.787 161.495C139.814 161.495 140.426 163.42 140.426 163.42L134.194 166.352L133.213 164.306L139.787 161.495Z" fill="#407BFF"/>
<path d="M134.023 74.3917C134.023 74.3917 136.351 103.381 137.891 114.238C139.584 126.133 146.221 165.747 146.221 165.747H152.43C152.43 165.747 148.711 127.095 148.009 115.316C147.243 102.54 145.721 74.3917 145.721 74.3917H134.023Z" fill="#407BFF"/>
<path d="M152.525 163.939C152.552 163.939 152.732 165.878 152.732 165.878H145.906L145.419 163.651L152.525 163.939Z" fill="#407BFF"/>
<path opacity="0.2" d="M150.147 161.641C150.133 161.641 150.12 161.636 150.109 161.626C150.098 161.616 150.091 161.601 150.089 161.586C150.053 161.233 146.698 126.319 146.068 115.739C145.383 104.263 144.006 78.8051 143.992 78.5482C143.992 78.5398 143.992 78.5314 143.995 78.5235C143.997 78.5156 144.001 78.5083 144.006 78.5021C144.011 78.496 144.018 78.4911 144.024 78.4877C144.031 78.4844 144.039 78.4826 144.046 78.4827C144.061 78.4826 144.075 78.4888 144.086 78.5C144.097 78.5113 144.104 78.5266 144.105 78.5431C144.105 78.8001 145.496 104.237 146.18 115.734C146.811 126.314 150.165 161.203 150.197 161.581C150.198 161.589 150.198 161.598 150.196 161.606C150.194 161.614 150.191 161.622 150.186 161.628C150.181 161.635 150.176 161.641 150.169 161.644C150.162 161.648 150.155 161.651 150.147 161.651V161.641Z" fill="black"/>
<path d="M137.594 27.7139C137.594 28.0212 137.423 28.268 137.243 28.268C137.063 28.268 136.932 28.0212 136.95 27.7139C136.968 27.4065 137.121 27.1597 137.301 27.1597C137.481 27.1597 137.612 27.4116 137.594 27.7139Z" fill="#263238"/>
<path d="M134.505 27.7139C134.505 28.0212 134.329 28.268 134.154 28.268C133.978 28.268 133.843 28.0212 133.857 27.7139C133.87 27.4065 134.032 27.1597 134.212 27.1597C134.392 27.1597 134.523 27.4116 134.505 27.7139Z" fill="#263238"/>
<path d="M135.477 27.87C135.102 28.8084 134.617 29.6875 134.037 30.4848C134.487 30.9886 135.329 30.7568 135.329 30.7568L135.477 27.87Z" fill="#DF5753"/>
<path d="M135.559 32.0416C135.548 32.0416 135.538 32.0392 135.528 32.0346C135.519 32.03 135.51 32.0232 135.503 32.0147C135.496 32.0062 135.49 31.9962 135.487 31.9852C135.483 31.9742 135.481 31.9625 135.482 31.9509C135.483 31.9264 135.493 31.9033 135.509 31.8864C135.525 31.8696 135.546 31.8602 135.568 31.8602C135.912 31.8629 136.253 31.7792 136.564 31.6153C136.876 31.4514 137.151 31.2114 137.369 30.913C137.384 30.8978 137.404 30.8894 137.425 30.8894C137.446 30.8894 137.466 30.8978 137.481 30.913C137.496 30.9299 137.504 30.9525 137.504 30.976C137.504 30.9995 137.496 31.0221 137.481 31.039C137.248 31.3561 136.954 31.6107 136.622 31.7842C136.289 31.9577 135.926 32.0456 135.559 32.0416Z" fill="#263238"/>
<path d="M138.143 26.7869C138.122 26.7993 138.098 26.8057 138.073 26.8057C138.049 26.8057 138.025 26.7993 138.004 26.7869C137.835 26.665 137.643 26.5893 137.444 26.5656C137.244 26.542 137.043 26.5712 136.855 26.6509C136.837 26.6611 136.817 26.6671 136.797 26.6686C136.776 26.6701 136.756 26.6669 136.737 26.6594C136.717 26.6519 136.7 26.6402 136.684 26.6248C136.669 26.6095 136.657 26.591 136.648 26.5702C136.631 26.5254 136.631 26.475 136.647 26.4299C136.663 26.3847 136.694 26.3483 136.734 26.3284C136.969 26.2208 137.224 26.1784 137.477 26.2047C137.731 26.231 137.974 26.3253 138.188 26.4796C138.205 26.4927 138.22 26.5095 138.232 26.5291C138.243 26.5487 138.251 26.5705 138.255 26.5935C138.258 26.6165 138.258 26.6401 138.254 26.6629C138.249 26.6857 138.241 26.7073 138.229 26.7264C138.206 26.7553 138.176 26.7763 138.143 26.7869Z" fill="#263238"/>
<path d="M133.312 25.7792C133.288 25.7727 133.266 25.7588 133.249 25.7389C133.234 25.7225 133.222 25.7029 133.214 25.6813C133.206 25.6597 133.201 25.6364 133.201 25.613C133.201 25.5895 133.206 25.5663 133.214 25.5447C133.222 25.523 133.234 25.5034 133.249 25.487C133.421 25.2704 133.636 25.1014 133.877 24.993C134.117 24.8847 134.377 24.8399 134.636 24.8623C134.656 24.8659 134.676 24.8742 134.694 24.8867C134.712 24.8992 134.727 24.9156 134.739 24.935C134.75 24.9544 134.759 24.9762 134.763 24.9993C134.766 25.0223 134.766 25.046 134.762 25.0689C134.752 25.1155 134.727 25.1566 134.693 25.1844C134.658 25.2123 134.615 25.2249 134.573 25.22C134.368 25.2056 134.163 25.2434 133.974 25.3307C133.784 25.418 133.615 25.5524 133.478 25.7238C133.458 25.7493 133.431 25.768 133.402 25.7778C133.373 25.7875 133.341 25.788 133.312 25.7792Z" fill="#263238"/>
<path d="M150.251 46.3699L145.568 44.9744C145.568 44.9744 140.975 57.625 139.35 58.4462C137.144 59.5747 131.556 63.4843 129.178 65.3333C129.048 65.963 129.151 67.6306 129.448 68.0891C133.501 67.2628 141.259 63.9226 142.88 62.2248C146.577 58.3505 150.251 46.3699 150.251 46.3699Z" fill="#E58A7B"/>
<path d="M146.982 171.103C146.753 171.123 146.526 171.054 146.338 170.906C146.28 170.848 146.237 170.773 146.212 170.69C146.188 170.607 146.183 170.518 146.198 170.433C146.201 170.379 146.217 170.327 146.244 170.283C146.271 170.239 146.308 170.203 146.352 170.181C146.73 169.964 147.788 170.715 147.91 170.8C147.923 170.81 147.933 170.824 147.939 170.84C147.945 170.856 147.945 170.874 147.941 170.891C147.937 170.909 147.929 170.925 147.918 170.938C147.907 170.951 147.893 170.961 147.878 170.967C147.584 171.047 147.284 171.093 146.982 171.103ZM146.532 170.317C146.498 170.308 146.462 170.308 146.428 170.317C146.411 170.327 146.397 170.342 146.387 170.361C146.377 170.379 146.373 170.401 146.374 170.423C146.362 170.481 146.364 170.542 146.38 170.6C146.396 170.657 146.425 170.709 146.464 170.75C146.64 170.926 147.081 170.947 147.662 170.821C147.316 170.566 146.927 170.394 146.518 170.317H146.532Z" fill="#407BFF"/>
<path d="M147.856 170.967C147.844 170.971 147.831 170.971 147.82 170.967C147.482 170.755 146.847 169.924 146.942 169.501C146.956 169.434 146.99 169.374 147.038 169.331C147.086 169.288 147.146 169.264 147.207 169.264C147.268 169.255 147.329 169.26 147.387 169.28C147.446 169.3 147.499 169.334 147.545 169.38C147.919 169.737 147.941 170.836 147.941 170.891C147.943 170.908 147.94 170.925 147.933 170.939C147.926 170.954 147.914 170.965 147.901 170.972C147.885 170.975 147.87 170.973 147.856 170.967ZM147.252 169.43H147.221C147.117 169.43 147.104 169.496 147.099 169.521C147.045 169.768 147.446 170.397 147.779 170.695C147.777 170.269 147.66 169.854 147.441 169.506C147.389 169.455 147.321 169.428 147.252 169.43Z" fill="#407BFF"/>
<path d="M135.027 170.473C134.752 170.58 134.452 170.58 134.176 170.473C134.114 170.435 134.061 170.38 134.022 170.313C133.984 170.246 133.961 170.169 133.956 170.09C133.95 170.04 133.956 169.99 133.972 169.943C133.989 169.896 134.016 169.855 134.05 169.823C134.41 169.46 135.883 169.823 136.049 169.894C136.065 169.898 136.079 169.909 136.089 169.923C136.099 169.938 136.104 169.956 136.103 169.974C136.104 169.993 136.1 170.012 136.091 170.028C136.082 170.044 136.069 170.057 136.054 170.065C135.722 170.232 135.379 170.369 135.027 170.473ZM134.293 169.873C134.242 169.885 134.194 169.911 134.154 169.949C134.139 169.961 134.128 169.977 134.122 169.996C134.116 170.015 134.114 170.035 134.118 170.055C134.121 170.108 134.135 170.159 134.161 170.204C134.186 170.249 134.221 170.286 134.262 170.312C134.5 170.453 135.054 170.342 135.77 170.004C135.288 169.868 134.789 169.824 134.293 169.873Z" fill="#407BFF"/>
<path d="M136.04 170.065H136.004C135.554 169.974 134.653 169.395 134.626 168.962C134.626 168.861 134.667 168.72 134.883 168.639C134.956 168.61 135.034 168.598 135.111 168.603C135.188 168.608 135.264 168.631 135.333 168.669C135.82 168.936 136.076 169.904 136.09 169.949C136.093 169.964 136.093 169.98 136.089 169.995C136.085 170.01 136.077 170.024 136.067 170.035C136.061 170.047 136.051 170.057 136.04 170.065ZM134.973 168.79H134.928C134.789 168.846 134.789 168.911 134.789 168.931C134.789 169.193 135.441 169.672 135.896 169.833C135.791 169.429 135.57 169.074 135.266 168.826C135.175 168.774 135.071 168.762 134.973 168.79Z" fill="#407BFF"/>
<path d="M129.561 65.0361L124.865 67.4544L124.32 68.9658L126.053 70.2707C126.053 70.2707 129.295 69.8777 130.218 67.5451L129.561 65.0361Z" fill="#E58A7B"/>
<path d="M129.759 68.1746C129.654 67.165 129.356 66.1925 128.886 65.3231L129.629 64.6984C130.187 65.7001 130.544 66.8263 130.673 67.9983L129.759 68.1746Z" fill="#263238"/>
<path d="M130.561 65.7513C130.66 65.9261 130.709 66.1308 130.7 66.3376C130.692 66.5444 130.627 66.7434 130.514 66.9073C130.401 67.0713 130.245 67.1923 130.069 67.2539C129.892 67.3156 129.703 67.3148 129.526 67.2518C129.35 67.1887 129.195 67.0664 129.084 66.9016C128.972 66.7367 128.908 66.5373 128.901 66.3304C128.894 66.1235 128.944 65.9192 129.044 65.7453C129.145 65.5713 129.29 65.4362 129.462 65.3584C129.654 65.2486 129.878 65.2284 130.083 65.302C130.289 65.3756 130.461 65.5371 130.561 65.7513Z" fill="#263238"/>
<path d="M121.69 69.4091L122.316 70.1145L126.531 68.0992L124.865 67.4543L121.69 69.4091Z" fill="#E58A7B"/>
<path opacity="0.2" d="M139.787 161.495C139.814 161.495 140.426 163.42 140.426 163.42L134.194 166.352L133.213 164.306L139.787 161.495Z" fill="black"/>
<path opacity="0.2" d="M152.525 163.939C152.552 163.939 152.732 165.878 152.732 165.878H145.906L145.419 163.651L152.525 163.939Z" fill="black"/>
<path d="M151.471 44.9189C152.709 49.3877 147.869 55.4989 147.869 55.4989L141.182 52.4458C141.975 49.8629 142.889 47.3286 143.92 44.8534C145.973 39.901 150.219 40.4098 151.471 44.9189Z" fill="#407BFF"/>
<path opacity="0.2" d="M151.471 44.9189C152.709 49.3877 147.869 55.4989 147.869 55.4989L141.182 52.4458C141.975 49.8629 142.889 47.3286 143.92 44.8534C145.973 39.901 150.219 40.4098 151.471 44.9189Z" fill="black"/>
<path d="M85.0291 0.145508H82.1519V0.66443H85.0291V0.145508Z" fill="#407BFF"/>
<path d="M122.275 20.684L121.927 29.3307L122.39 29.354L122.738 20.7074L122.275 20.684Z" fill="#407BFF"/>
<path d="M121.379 2.47314H68.2473L63.3033 126.269H116.435L121.379 2.47314Z" fill="#407BFF"/>
<path opacity="0.56" d="M119.795 4.1759H66.6625L61.7185 127.972H114.851L119.795 4.1759Z" fill="#FAFAFA"/>
<path opacity="0.07" d="M118.21 5.87378H65.0775L60.129 129.67H113.261L118.21 5.87378Z" fill="#407BFF"/>
<path d="M112.162 59.8669H66.811L66.4327 69.3385H111.784L112.162 59.8669Z" fill="white"/>
<path d="M91.7516 52.9546H67.0857L66.9191 57.1916H91.585L91.7516 52.9546Z" fill="#407BFF"/>
<path d="M111.14 85.4302H65.7889L65.4106 94.9018H110.762L111.14 85.4302Z" fill="white"/>
<path opacity="0.47" d="M102.824 107.693H72.3268L71.8721 119.044H102.369L102.824 107.693Z" fill="#407BFF"/>
<path d="M100.784 120.808H70.2872C70.2739 120.811 70.2599 120.811 70.2466 120.808C70.2422 120.793 70.2422 120.777 70.2466 120.762L70.6969 109.406C70.6969 109.399 70.6983 109.391 70.7011 109.384C70.7038 109.377 70.7079 109.371 70.713 109.365C70.718 109.36 70.7241 109.356 70.7306 109.354C70.7371 109.351 70.7441 109.35 70.7509 109.351H101.248C101.253 109.348 101.26 109.346 101.266 109.346C101.272 109.346 101.278 109.348 101.284 109.351C101.287 109.357 101.289 109.364 101.289 109.371C101.289 109.378 101.287 109.385 101.284 109.391L100.843 120.772C100.837 120.784 100.829 120.794 100.818 120.8C100.808 120.807 100.796 120.809 100.784 120.808ZM70.3412 120.687H100.73L101.18 109.452H70.7915L70.3412 120.687Z" fill="white"/>
<path d="M86.4249 78.5179H66.0636L65.897 82.76H86.2538L86.4249 78.5179Z" fill="#407BFF"/>
<path d="M102.243 29.2707C102.127 32.0272 101.251 34.6758 99.735 36.853C98.6131 38.4975 97.1694 39.8325 95.5147 40.7556C93.86 41.6787 92.0382 42.1654 90.1893 42.1782C88.6951 42.191 87.2144 41.8613 85.8385 41.2095C84.4625 40.5578 83.2204 39.5977 82.1886 38.3885C81.1567 37.1792 80.3571 35.7465 79.839 34.1784C79.3208 32.6103 79.095 30.9401 79.1756 29.2707C79.3339 25.8065 80.6691 22.5408 82.908 20.1416C85.1469 17.7423 88.1204 16.3907 91.2204 16.3631C92.7157 16.3475 94.1979 16.6751 95.5756 17.3258C96.9532 17.9764 98.197 18.9362 99.23 20.1459C100.263 21.3556 101.063 22.7895 101.582 24.3589C102.1 25.9284 102.325 27.6 102.243 29.2707Z" fill="white"/>
<path d="M103.328 19.0635C103.299 19.7964 103.066 20.5009 102.662 21.0787C102.363 21.5155 101.979 21.8701 101.538 22.1154C101.098 22.3608 100.614 22.4904 100.122 22.4944C99.6459 22.4977 99.176 22.3703 98.7537 22.1235C98.3315 21.8768 97.9696 21.518 97.6998 21.0787C97.3425 20.4851 97.1657 19.7784 97.1955 19.0635C97.239 18.1437 97.5945 17.2772 98.1894 16.6406C98.7843 16.004 99.5738 15.6453 100.397 15.6376C100.794 15.6335 101.188 15.7205 101.554 15.8931C101.92 16.0658 102.25 16.3204 102.525 16.6414C102.799 16.9623 103.012 17.3428 103.15 17.7594C103.289 18.1759 103.349 18.6198 103.328 19.0635Z" fill="#407BFF"/>
<path d="M71.6965 64.6028C71.6749 65.0088 71.5165 65.3905 71.2533 65.671C70.9901 65.9514 70.6416 66.1098 70.2782 66.1142C70.1027 66.1165 69.9286 66.0786 69.7668 66.0027C69.6049 65.9268 69.4587 65.8145 69.3372 65.6728C69.2156 65.5312 69.1213 65.3631 69.0601 65.1791C68.9989 64.995 68.9721 64.7989 68.9814 64.6028C69.0009 64.196 69.1587 63.8129 69.4223 63.5319C69.686 63.2509 70.0356 63.0933 70.3998 63.0914C70.5751 63.0897 70.7488 63.1282 70.9104 63.2044C71.0719 63.2806 71.2179 63.3928 71.3393 63.5343C71.4607 63.6758 71.555 63.8436 71.6164 64.0273C71.6779 64.211 71.7051 64.4069 71.6965 64.6028Z" fill="#263238"/>
<path d="M77.7661 64.6027C77.7456 65.0091 77.5875 65.3915 77.3241 65.6722C77.0606 65.953 76.7116 66.111 76.3478 66.1141C76.1727 66.1158 75.9991 66.0773 75.8378 66.0011C75.6764 65.9249 75.5308 65.8125 75.4097 65.6709C75.2886 65.5293 75.1948 65.3615 75.1339 65.1778C75.0729 64.9941 75.0463 64.7984 75.0555 64.6027C75.075 64.1968 75.2321 63.8144 75.4948 63.5336C75.7575 63.2527 76.106 63.0946 76.4693 63.0913C76.6448 63.0889 76.8189 63.1269 76.9808 63.2028C77.1426 63.2788 77.2888 63.391 77.4104 63.5327C77.5319 63.6743 77.6262 63.8424 77.6874 64.0264C77.7486 64.2105 77.7754 64.4066 77.7661 64.6027Z" fill="#263238"/>
<path d="M83.8403 64.6027C83.8198 65.0091 83.6617 65.3915 83.3983 65.6722C83.1348 65.953 82.7858 66.111 82.422 66.1141C82.2467 66.1157 82.0729 66.0773 81.9114 66.0011C81.7498 65.9249 81.6039 65.8127 81.4824 65.6712C81.361 65.5297 81.2667 65.3619 81.2053 65.1782C81.1439 64.9945 81.1166 64.7986 81.1252 64.6027C81.1458 64.1963 81.3038 63.8139 81.5673 63.5332C81.8307 63.2525 82.1798 63.0945 82.5436 63.0913C82.7191 63.0889 82.8931 63.1269 83.055 63.2028C83.2168 63.2788 83.363 63.391 83.4846 63.5327C83.6061 63.6743 83.7004 63.8424 83.7616 64.0264C83.8228 64.2105 83.8496 64.4066 83.8403 64.6027Z" fill="#263238"/>
<path d="M70.6743 90.1659C70.6527 90.5719 70.4943 90.9536 70.2311 91.2341C69.9679 91.5145 69.6194 91.6729 69.256 91.6773C69.0807 91.6789 68.9069 91.6405 68.7454 91.5643C68.5838 91.4881 68.4378 91.3758 68.3164 91.2343C68.195 91.0928 68.1007 90.9251 68.0393 90.7414C67.9779 90.5576 67.9506 90.3618 67.9592 90.1659C67.9798 89.7595 68.1378 89.3771 68.4013 89.0964C68.6647 88.8157 69.0138 88.6577 69.3775 88.6545C69.5529 88.6529 69.7266 88.6913 69.8882 88.7675C70.0497 88.8437 70.1957 88.9559 70.3171 89.0974C70.4385 89.239 70.5328 89.4067 70.5942 89.5904C70.6557 89.7742 70.6829 89.97 70.6743 90.1659Z" fill="#263238"/>
<path d="M76.744 90.1659C76.7235 90.5714 76.5661 90.9531 76.3036 91.2337C76.0411 91.5143 75.6932 91.6729 75.3302 91.6773C75.1547 91.6797 74.9806 91.6417 74.8188 91.5658C74.6569 91.4899 74.5107 91.3776 74.3892 91.2359C74.2676 91.0943 74.1733 90.9262 74.1121 90.7422C74.0509 90.5581 74.0242 90.362 74.0334 90.1659C74.054 89.7595 74.212 89.3771 74.4755 89.0964C74.7389 88.8157 75.088 88.6577 75.4518 88.6545C75.6269 88.6528 75.8004 88.6913 75.9618 88.7675C76.1231 88.8437 76.2688 88.9561 76.3898 89.0977C76.5109 89.2393 76.6048 89.4071 76.6657 89.5908C76.7266 89.7745 76.7533 89.9702 76.744 90.1659Z" fill="#263238"/>
<path d="M82.8318 90.1659C82.8112 90.5723 82.6532 90.9547 82.3898 91.2355C82.1263 91.5162 81.7773 91.6742 81.4135 91.6774C81.2383 91.6783 81.0649 91.6393 80.9036 91.5629C80.7424 91.4865 80.5967 91.3742 80.4754 91.2328C80.3541 91.0915 80.2598 90.924 80.1981 90.7406C80.1365 90.5572 80.1087 90.3617 80.1167 90.1659C80.1383 89.76 80.2967 89.3783 80.5599 89.0978C80.8231 88.8173 81.1716 88.6589 81.535 88.6545C81.7105 88.6522 81.8846 88.6901 82.0464 88.7661C82.2083 88.842 82.3545 88.9542 82.4761 89.0959C82.5976 89.2376 82.6919 89.4056 82.7531 89.5897C82.8143 89.7737 82.8411 89.9698 82.8318 90.1659Z" fill="#263238"/>
<path d="M88.8924 90.1659C88.8708 90.5719 88.7124 90.9536 88.4491 91.2341C88.1859 91.5145 87.8375 91.6729 87.474 91.6773C87.2989 91.6782 87.1254 91.6392 86.9642 91.5628C86.8029 91.4864 86.6572 91.3741 86.536 91.2328C86.4147 91.0914 86.3203 90.9239 86.2587 90.7405C86.197 90.5571 86.1693 90.3616 86.1772 90.1659C86.1989 89.7599 86.3572 89.3782 86.6205 89.0977C86.8837 88.8172 87.2321 88.6588 87.5956 88.6545C87.7709 88.6529 87.9447 88.6913 88.1062 88.7675C88.2678 88.8437 88.4137 88.9559 88.5351 89.0974C88.6565 89.239 88.7509 89.4067 88.8123 89.5904C88.8737 89.7742 88.901 89.97 88.8924 90.1659Z" fill="#263238"/>
<path d="M94.9891 90.1659C94.9675 90.5719 94.8091 90.9536 94.5459 91.2341C94.2827 91.5145 93.9342 91.6729 93.5708 91.6773C93.3953 91.6797 93.2212 91.6417 93.0594 91.5658C92.8975 91.4899 92.7513 91.3776 92.6297 91.2359C92.5082 91.0943 92.4139 90.9262 92.3527 90.7422C92.2915 90.5581 92.2648 90.362 92.274 90.1659C92.2946 89.7595 92.4526 89.3771 92.7161 89.0964C92.9795 88.8157 93.3286 88.6577 93.6924 88.6545C93.8677 88.6529 94.0414 88.6913 94.203 88.7675C94.3645 88.8437 94.5105 88.9559 94.6319 89.0974C94.7533 89.239 94.8476 89.4067 94.909 89.5904C94.9705 89.7742 94.9977 89.97 94.9891 90.1659Z" fill="#263238"/>
<path d="M94.0675 28.5983C95.9522 26.5362 96.0522 23.2309 94.2909 21.2157C92.5296 19.2005 89.574 19.2385 87.6894 21.3006C85.8048 23.3627 85.7048 26.6681 87.466 28.6833C89.2273 30.6985 92.1829 30.6605 94.0675 28.5983Z" fill="#407BFF"/>
<path d="M99.735 36.8529C98.6131 38.4974 97.1694 39.8324 95.5146 40.7555C93.8599 41.6786 92.0382 42.1653 90.1892 42.1781C88.3962 42.1951 86.6271 41.7183 85.0378 40.7896C83.4484 39.8609 82.0877 38.5089 81.0757 36.8529C83.264 34.4144 86.7266 32.8224 90.5629 32.8224C94.3992 32.8224 97.7403 34.4144 99.735 36.8529Z" fill="#407BFF"/>
<path opacity="0.1" d="M94.0675 28.5983C95.9522 26.5362 96.0522 23.2309 94.2909 21.2157C92.5296 19.2005 89.574 19.2385 87.6894 21.3006C85.8048 23.3627 85.7048 26.6681 87.466 28.6833C89.2273 30.6985 92.1829 30.6605 94.0675 28.5983Z" fill="white"/>
<path opacity="0.1" d="M99.735 36.8529C98.6131 38.4974 97.1694 39.8324 95.5146 40.7555C93.8599 41.6786 92.0382 42.1653 90.1892 42.1781C88.3962 42.1951 86.6271 41.7183 85.0378 40.7896C83.4484 39.8609 82.0877 38.5089 81.0757 36.8529C83.264 34.4144 86.7266 32.8224 90.5629 32.8224C94.3992 32.8224 97.7403 34.4144 99.735 36.8529Z" fill="white"/>
<path d="M33.4864 71.6207C33.0586 72.6686 32.6083 73.8223 32.2166 74.9408C31.8249 76.0592 31.4241 77.213 31.0774 78.3616C30.3695 80.6254 29.8304 82.9509 29.4655 85.3142L29.3664 86.0548C29.3569 86.1818 29.3676 86.3097 29.3979 86.4326C29.5042 86.8502 29.6715 87.2452 29.8932 87.6015C30.4715 88.5238 31.1422 89.369 31.8924 90.1205C32.6834 90.9437 33.513 91.719 34.3779 92.4431C35.2424 93.1887 36.152 93.9142 37.048 94.5994L36.206 96.3677C34.0664 95.3247 32.0356 94.0221 30.1499 92.4834C29.1438 91.6625 28.2359 90.7008 27.4482 89.6218C26.9813 88.9795 26.6172 88.2516 26.3721 87.4705C26.2295 86.9825 26.1566 86.4724 26.1559 85.9591C26.1559 85.8382 26.1559 85.6618 26.1559 85.5762V85.3293L26.201 84.8255C26.4591 82.2007 26.9524 79.6115 27.6734 77.0971C28.0246 75.8577 28.3983 74.6234 28.8261 73.4193C29.2538 72.2152 29.6951 71.0363 30.2399 69.812L33.4864 71.6207Z" fill="#E58A7B"/>
<path d="M36.4131 94.287L39.5966 92.4834L38.7726 96.3929C38.7726 96.3929 36.5887 97.0781 35.5756 95.8891L36.4131 94.287Z" fill="#E58A7B"/>
<path d="M42.5098 93.1232L41.6633 96.3577L38.7726 96.3929L39.5966 92.4834L42.5098 93.1232Z" fill="#E58A7B"/>
<path d="M47.0034 52.7582C47.1737 53.4564 47.4107 54.132 47.7104 54.7734C47.6228 54.8845 47.5101 54.967 47.3841 55.0122C47.258 55.0575 47.1234 55.0637 46.9944 55.0304L47.0034 52.7582Z" fill="#DF5753"/>
<path d="M46.909 52.7884C47.0955 52.7884 47.2467 52.529 47.2467 52.209C47.2467 51.889 47.0955 51.6296 46.909 51.6296C46.7225 51.6296 46.5713 51.889 46.5713 52.209C46.5713 52.529 46.7225 52.7884 46.909 52.7884Z" fill="#263238"/>
<path d="M46.8099 51.6499L47.4947 51.4331C47.4947 51.4331 47.1613 52.0279 46.8099 51.6499Z" fill="#263238"/>
<path d="M38.2097 56.4562C38.6194 58.7989 39.0292 63.0964 37.5613 64.6632C37.5613 64.6632 38.1376 67.0412 42.0325 67.0412C46.3146 67.0412 44.0767 64.6632 44.0767 64.6632C41.7398 64.0385 41.7983 62.0988 42.2081 60.275L38.2097 56.4562Z" fill="#E58A7B"/>
<path d="M37.0705 51.1157C37.2867 55.0303 37.3047 56.6929 39.0697 58.7031C41.7309 61.7259 45.9814 60.5773 46.8144 56.6879C47.5664 53.1612 47.0891 47.3573 43.6625 45.8006C42.9104 45.4539 42.0916 45.3276 41.2837 45.4337C40.4758 45.5398 39.7054 45.8748 39.0454 46.4069C38.3855 46.939 37.8577 47.6507 37.5121 48.4747C37.1666 49.2987 37.0146 50.2077 37.0705 51.1157Z" fill="#E58A7B"/>
<path d="M37.4172 46.7123C35.6611 47.4277 33.3197 46.8937 34.2383 52.9545C35.2108 59.373 33.7159 61.484 33.7159 61.484C33.7159 61.484 40.3755 63.071 47.1746 61.3883C47.1746 61.3883 45.0988 57.3276 45.6797 54.335C46.4226 50.5564 45.8373 49.1608 45.8373 49.1608C45.8373 49.1608 39.8847 45.7047 37.4172 46.7123Z" fill="#263238"/>
<path d="M44.8467 53.1563C44.8486 53.9006 45.0391 54.6291 45.3961 55.2572C45.8734 56.0733 46.4362 55.761 46.5758 54.8944C46.7019 54.1337 46.6073 52.7885 45.9994 52.2645C45.3916 51.7406 44.8557 52.2544 44.8467 53.1563Z" fill="#E58A7B"/>
<path d="M35.8908 47.3724C35.3865 45.7854 37.7909 43.342 42.879 44.3496C47.9671 45.3572 48.1877 50.098 48.1877 50.098L47.1611 48.7277L47.2061 50.1686L41.9785 51.2921L35.8908 47.3724Z" fill="#263238"/>
<path d="M36.323 64.9301C36.293 64.7001 36.3444 64.466 36.4664 64.2778C36.5883 64.0896 36.7712 63.9621 36.9759 63.9225C38.5609 63.6303 42.163 63.0358 43.9731 63.3179C45.324 63.5295 45.6752 64.4062 45.7337 65.1266C45.7429 65.2528 45.7278 65.3796 45.6895 65.4987C45.6512 65.6178 45.5905 65.7264 45.5116 65.817C45.4327 65.9077 45.3374 65.9784 45.232 66.0245C45.1266 66.0705 45.0136 66.0907 44.9007 66.0838L37.075 65.6909C36.8905 65.6805 36.7149 65.599 36.5778 65.4604C36.4408 65.3218 36.3508 65.1345 36.323 64.9301Z" fill="#407BFF"/>
<path opacity="0.6" d="M36.323 64.9301C36.293 64.7001 36.3444 64.466 36.4664 64.2778C36.5883 64.0896 36.7712 63.9621 36.9759 63.9225C38.5609 63.6303 42.163 63.0358 43.9731 63.3179C45.324 63.5295 45.6752 64.4062 45.7337 65.1266C45.7429 65.2528 45.7278 65.3796 45.6895 65.4987C45.6512 65.6178 45.5905 65.7264 45.5116 65.817C45.4327 65.9077 45.3374 65.9784 45.232 66.0245C45.1266 66.0705 45.0136 66.0907 44.9007 66.0838L37.075 65.6909C36.8905 65.6805 36.7149 65.599 36.5778 65.4604C36.4408 65.3218 36.3508 65.1345 36.323 64.9301Z" fill="black"/>
<path d="M40.8483 152.946L43.7525 155.203L48.611 147.832L45.7067 145.58L40.8483 152.946Z" fill="#E58A7B"/>
<path d="M34.0762 152.799L37.1425 154.754L41.4426 146.96L38.3763 145.005L34.0762 152.799Z" fill="#E58A7B"/>
<path d="M48.6064 147.832L46.1029 151.631L43.1987 149.379L45.7022 145.58L48.6064 147.832Z" fill="#CF6F64"/>
<path d="M38.3718 145.005L41.4426 146.965L39.2273 150.981L36.1564 149.021L38.3718 145.005Z" fill="#CF6F64"/>
<path d="M43.2978 89.5361C43.2978 89.5361 54.6356 105.522 52.5058 120.813C50.7903 133.161 40.8393 149.882 40.8393 149.882L36.161 147.283C39.4585 139.889 42.2726 132.238 44.581 124.39C45.2929 121.953 45.5007 119.367 45.1887 116.827C44.8767 114.287 44.053 111.86 42.78 109.729C37.0345 100.343 27.8309 105.93 34.0222 89.5361H43.2978Z" fill="#407BFF"/>
<path opacity="0.6" d="M43.2978 89.5361C43.2978 89.5361 54.6356 105.522 52.5058 120.813C50.7903 133.161 40.8393 149.882 40.8393 149.882L36.161 147.283C39.4585 139.889 42.2726 132.238 44.581 124.39C45.2929 121.953 45.5007 119.367 45.1887 116.827C44.8767 114.287 44.053 111.86 42.78 109.729C37.0345 100.343 27.8309 105.93 34.0222 89.5361H43.2978Z" fill="black"/>
<path opacity="0.4" d="M48.8587 99.8038L47.2107 97.97C47.2107 98.1161 50.4031 120.168 51.2992 126.365C51.8279 124.554 52.2329 122.702 52.5104 120.823C53.564 113.321 51.3622 105.658 48.8587 99.8038Z" fill="black"/>
<path d="M48.3589 89.5361C48.3589 89.5361 62.0111 109.628 62.3984 121.674C62.7181 131.75 47.5394 151.273 47.5394 151.273L43.1267 148.079C43.1267 148.079 52.0106 134.214 54.2484 122.888C53.3839 111.663 35.1028 89.5361 35.1028 89.5361H48.3589Z" fill="#407BFF"/>
<path opacity="0.6" d="M48.3589 89.5361C48.3589 89.5361 62.0111 109.628 62.3984 121.674C62.7181 131.75 47.5394 151.273 47.5394 151.273L43.1267 148.079C43.1267 148.079 52.0106 134.214 54.2484 122.888C53.3839 111.663 35.1028 89.5361 35.1028 89.5361H48.3589Z" fill="black"/>
<path d="M31.4692 65.5599C30.0103 65.9479 28.6099 71.8827 28.6099 71.8827L34.3149 76.1449C34.3149 76.1449 36.215 71.4494 35.5486 69.3939C34.8597 67.2527 33.3018 65.0712 31.4692 65.5599Z" fill="#407BFF"/>
<path opacity="0.2" d="M32.5859 69.3838L32.1896 74.5579L34.3104 76.1499C34.896 74.6749 35.3296 73.13 35.6027 71.5451L32.5859 69.3838Z" fill="black"/>
<path d="M50.0474 65.6758C50.0474 65.6758 51.7314 66.3358 48.3588 89.5311H34.0132C34.2563 82.9816 34.2608 78.9511 31.4691 65.5599C33.4778 65.0967 35.5139 64.797 37.5613 64.6631C39.7303 64.4891 41.9077 64.4891 44.0767 64.6631C46.8774 64.9503 50.0474 65.6758 50.0474 65.6758Z" fill="#407BFF"/>
<path d="M51.5063 69.3839C51.8305 70.3915 52.1727 71.4747 52.5329 72.5176C52.8931 73.5605 53.2353 74.6336 53.6 75.6916L54.7032 78.8555L54.9824 79.6465L55.1265 80.0394L55.194 80.2359C55.194 80.2712 55.194 80.2712 55.194 80.2662C55.1117 80.1364 55.0039 80.0295 54.8788 79.9538C54.7007 79.8365 54.4999 79.7691 54.2934 79.7573C54.1219 79.7513 53.9513 79.7874 53.7936 79.8631C53.5865 79.9689 53.5865 80.0142 53.591 80.0092C53.6285 79.9756 53.6618 79.9367 53.6901 79.8933C53.9393 79.5272 54.1551 79.1339 54.334 78.7195C54.5456 78.256 54.7482 77.7622 54.9508 77.2635C55.3471 76.2558 55.7118 75.213 56.0765 74.16C56.4413 73.107 56.788 72.044 57.1257 70.9709L58.1523 67.7566L59.8858 68.2604C59.5436 70.5578 59.1024 72.7947 58.571 75.0719C58.3144 76.2055 58.0127 77.329 57.6705 78.4625C57.4994 79.0318 57.3103 79.5961 57.0941 80.1755C56.8689 80.8043 56.5915 81.4081 56.2656 81.9791C56.1459 82.1713 56.0134 82.3532 55.8694 82.5232C55.6395 82.8011 55.3604 83.0224 55.0499 83.1731C54.7744 83.3055 54.476 83.3674 54.1764 83.3545C53.8408 83.3405 53.5138 83.2313 53.2263 83.0371C52.8871 82.8002 52.6056 82.4731 52.4068 82.0849C52.3393 81.9539 52.2807 81.8229 52.2402 81.7272L52.1547 81.5357L51.9836 81.1428L51.6413 80.3619C51.1911 79.314 50.7408 78.256 50.3491 77.1929C49.9573 76.1299 49.5431 75.0517 49.1558 73.9686C48.7686 72.8854 48.4219 71.8022 48.0932 70.6333L51.5063 69.3839Z" fill="#E58A7B"/>
<path d="M50.0474 65.6759C51.7719 66.1343 53.7126 71.8374 53.7126 71.8374L48.584 76.7193C48.584 76.7193 45.2655 70.5023 45.9364 68.4518C46.6343 66.3157 47.796 65.0763 50.0474 65.6759Z" fill="#407BFF"/>
<path d="M58.9674 65.953L60.7684 64.2703L62.0202 66.4517L61.0971 68.2705C61.0971 68.2705 59.6293 69.7819 58.3325 69.0111C58.1266 68.4935 58.0773 67.9148 58.1918 67.363C58.3064 66.8111 58.5787 66.3161 58.9674 65.953Z" fill="#E58A7B"/>
<path d="M64.0194 64.2753L63.8843 64.8244L61.034 65.3585L60.7549 64.2703L64.0194 64.2753Z" fill="#E58A7B"/>
<path d="M47.8906 151.53L42.7485 147.812L43.6715 146.018L49.4485 149.993L47.8906 151.53Z" fill="#407BFF"/>
<path d="M39.1553 154.492C38.7041 154.43 38.2706 154.258 37.8855 153.988C37.8696 153.982 37.8559 153.971 37.8461 153.955C37.8364 153.94 37.8311 153.922 37.8311 153.903C37.8311 153.884 37.8364 153.866 37.8461 153.85C37.8559 153.835 37.8696 153.823 37.8855 153.817C38.0251 153.767 39.2363 153.349 39.5876 153.671C39.627 153.708 39.657 153.756 39.6744 153.81C39.6919 153.864 39.6961 153.922 39.6866 153.978C39.6804 154.069 39.6535 154.156 39.6086 154.232C39.5637 154.308 39.5022 154.37 39.43 154.412C39.3456 154.463 39.2514 154.491 39.1553 154.492ZM38.1422 153.938C38.705 154.26 39.1553 154.376 39.3714 154.255C39.4185 154.226 39.4581 154.184 39.4865 154.133C39.5148 154.082 39.531 154.023 39.5335 153.963C39.5335 153.883 39.5335 153.847 39.493 153.827C39.3039 153.656 38.6285 153.787 38.1332 153.938H38.1422Z" fill="#263238"/>
<path d="M37.9171 154.024C37.8933 154.023 37.8706 154.012 37.854 153.993C37.8473 153.979 37.8438 153.964 37.8438 153.948C37.8438 153.932 37.8473 153.917 37.854 153.903C37.854 153.857 38.1467 152.764 38.606 152.517C38.6646 152.487 38.7284 152.472 38.7928 152.472C38.8573 152.472 38.921 152.487 38.9797 152.517C39.0429 152.54 39.0977 152.585 39.1352 152.646C39.1727 152.707 39.1909 152.781 39.1868 152.855C39.1553 153.308 38.3313 153.933 37.9531 154.039L37.9171 154.024ZM38.7906 152.648C38.7468 152.65 38.7038 152.662 38.6645 152.683C38.3853 152.835 38.1557 153.424 38.0431 153.782C38.4394 153.595 38.9842 153.102 39.0022 152.825C39.0022 152.779 39.0022 152.724 38.8986 152.673C38.865 152.653 38.8284 152.639 38.7906 152.633V152.648Z" fill="#263238"/>
<path d="M45.5807 156.669C45.0719 156.669 44.365 155.938 43.9777 155.49C43.9678 155.474 43.9625 155.456 43.9625 155.437C43.9625 155.418 43.9678 155.399 43.9777 155.384C43.9866 155.368 43.9993 155.354 44.0143 155.346C44.0294 155.337 44.0463 155.333 44.0633 155.334C44.2434 155.334 45.8058 155.595 46.0265 156.089C46.0498 156.133 46.0622 156.184 46.0622 156.235C46.0622 156.287 46.0498 156.337 46.0265 156.381C45.9934 156.458 45.9434 156.525 45.8812 156.574C45.819 156.623 45.7466 156.654 45.6708 156.664L45.5807 156.669ZM44.2749 155.56C44.8423 156.175 45.3421 156.517 45.6257 156.477C45.6754 156.47 45.7227 156.449 45.7636 156.417C45.8044 156.384 45.8375 156.341 45.8599 156.291C45.87 156.274 45.8753 156.253 45.8753 156.233C45.8753 156.212 45.87 156.192 45.8599 156.175C45.7428 155.903 44.9098 155.671 44.2749 155.56Z" fill="#263238"/>
<path d="M44.3244 155.535C44.2233 155.538 44.1223 155.53 44.0227 155.51C44.0088 155.508 43.9957 155.501 43.9847 155.491C43.9736 155.482 43.965 155.469 43.9597 155.454C43.953 155.44 43.9495 155.423 43.9495 155.407C43.9495 155.39 43.953 155.374 43.9597 155.359C43.9867 155.323 44.5946 154.502 45.1709 154.447C45.3341 154.433 45.4957 154.49 45.6212 154.608C45.7968 154.779 45.7878 154.93 45.7428 155.026C45.6302 155.369 44.8512 155.535 44.3244 155.535ZM44.2073 155.349C44.7116 155.379 45.5176 155.192 45.6212 154.946C45.6212 154.946 45.6572 154.865 45.5401 154.754C45.4936 154.709 45.4391 154.675 45.3803 154.654C45.3214 154.633 45.2593 154.626 45.1979 154.633C44.8097 154.754 44.464 155.006 44.2073 155.354V155.349Z" fill="#263238"/>
<path d="M38.0386 153.48L34.2203 152.27C34.1545 152.248 34.0836 152.254 34.0213 152.286C33.959 152.319 33.9096 152.376 33.8826 152.447L32.5948 155.686C32.5646 155.769 32.5504 155.858 32.5531 155.948C32.5559 156.037 32.5756 156.125 32.6109 156.206C32.6462 156.286 32.6963 156.357 32.758 156.415C32.8196 156.472 32.8914 156.514 32.9685 156.538C34.3193 156.931 34.9677 157.041 36.6473 157.581C37.6829 157.903 39.1598 158.502 40.5871 158.956C42.0145 159.409 42.4918 157.853 41.938 157.52C39.4344 156.039 39.2363 155.001 38.5519 153.893C38.4293 153.692 38.2477 153.546 38.0386 153.48Z" fill="#407BFF"/>
<path d="M44.0812 154.9L40.8212 152.381C40.7659 152.336 40.6978 152.315 40.6298 152.323C40.5617 152.33 40.4985 152.365 40.452 152.421L38.2907 155.021C38.238 155.088 38.1987 155.167 38.1755 155.253C38.1522 155.338 38.1454 155.428 38.1556 155.517C38.1659 155.606 38.1928 155.691 38.2347 155.767C38.2767 155.843 38.3326 155.908 38.3988 155.958C39.547 156.82 40.1413 157.167 41.5777 158.281C42.4782 158.966 44.2208 160.487 45.4365 161.435C46.6523 162.382 47.5573 161.082 47.125 160.568C45.1889 158.256 44.7656 156.805 44.4459 155.49C44.3904 155.251 44.2612 155.042 44.0812 154.9Z" fill="#407BFF"/>
<path d="M41.4381 150.215L35.5621 146.945L36.1699 145.162L42.4467 148.608L41.4381 150.215Z" fill="#407BFF"/>
<path d="M33.7971 88.589L33.3018 90.0399C33.2523 90.1508 33.3693 90.2666 33.5359 90.2666H48.431C48.5615 90.2666 48.6696 90.1961 48.6786 90.1054L48.8047 88.6645C48.8047 88.5688 48.7011 88.4832 48.5615 88.4832H34.0312C33.9875 88.4786 33.9434 88.4858 33.9027 88.5042C33.8619 88.5226 33.8257 88.5517 33.7971 88.589Z" fill="#407BFF"/>
<path opacity="0.4" d="M33.7971 88.589L33.3018 90.0399C33.2523 90.1508 33.3693 90.2666 33.5359 90.2666H48.431C48.5615 90.2666 48.6696 90.1961 48.6786 90.1054L48.8047 88.6645C48.8047 88.5688 48.7011 88.4832 48.5615 88.4832H34.0312C33.9875 88.4786 33.9434 88.4858 33.9027 88.5042C33.8619 88.5226 33.8257 88.5517 33.7971 88.589Z" fill="white"/>
<path d="M36.143 90.4078H35.7512C35.6747 90.4078 35.6162 90.3624 35.6207 90.307L35.8053 88.4379C35.8053 88.3875 35.8773 88.3422 35.9539 88.3422H36.3456C36.4222 88.3422 36.4807 88.3875 36.4762 88.4379L36.2916 90.307C36.2871 90.3624 36.2195 90.4078 36.143 90.4078Z" fill="#407BFF"/>
<path d="M45.3284 90.4078H44.9412C44.8646 90.4078 44.8061 90.3624 44.8106 90.307L44.9907 88.4379C44.9907 88.3875 45.0673 88.3422 45.1438 88.3422H45.531C45.6076 88.3422 45.6706 88.3875 45.6616 88.4379L45.4815 90.307C45.459 90.3624 45.4095 90.4078 45.3284 90.4078Z" fill="#407BFF"/>
<g style="mix-blend-mode:multiply">
<path d="M35.8007 175.728C42.4628 175.728 47.8635 175.29 47.8635 174.75C47.8635 174.211 42.4628 173.773 35.8007 173.773C29.1386 173.773 23.7379 174.211 23.7379 174.75C23.7379 175.29 29.1386 175.728 35.8007 175.728Z" fill="#F5F5F5"/>
</g>
<path d="M43.1492 173.37C41.0149 172.675 38.6465 171.783 37.2146 170.851C37.1741 170.821 37.129 170.806 37.0885 170.78V159.969H41.4066C41.7344 159.947 42.0424 159.786 42.2676 159.519C42.4928 159.251 42.6183 158.898 42.6183 158.53C42.6183 158.163 42.4928 157.809 42.2676 157.542C42.0424 157.275 41.7344 157.114 41.4066 157.092H37.111V107.809H34.5175V157.092H30.2264C30.0511 157.08 29.8757 157.109 29.7107 157.176C29.5457 157.243 29.3947 157.347 29.267 157.482C29.1392 157.616 29.0375 157.779 28.9679 157.959C28.8983 158.14 28.8625 158.334 28.8625 158.53C28.8625 158.727 28.8983 158.921 28.9679 159.101C29.0375 159.282 29.1392 159.444 29.267 159.579C29.3947 159.714 29.5457 159.818 29.7107 159.885C29.8757 159.952 30.0511 159.98 30.2264 159.969H34.5175V170.765C34.4769 170.765 34.4364 170.806 34.3959 170.836C32.9415 171.783 30.5911 172.675 28.4568 173.355C28.3126 173.404 28.1888 173.509 28.1078 173.651C28.0268 173.793 27.9939 173.963 28.0151 174.129C28.0364 174.296 28.1103 174.449 28.2235 174.56C28.3367 174.671 28.4818 174.733 28.6324 174.735H42.9736C43.1175 174.724 43.2537 174.658 43.3595 174.549C43.4652 174.439 43.5341 174.292 43.5547 174.132C43.5752 173.972 43.5462 173.809 43.4724 173.671C43.3986 173.532 43.2845 173.426 43.1492 173.37Z" fill="#E0E0E0"/>
<path d="M43.8111 102.791H27.7995C26.5113 102.791 25.467 103.96 25.467 105.401V110.726C25.467 112.168 26.5113 113.336 27.7995 113.336H43.8111C45.0993 113.336 46.1436 112.168 46.1436 110.726V105.401C46.1436 103.96 45.0993 102.791 43.8111 102.791Z" fill="#407BFF"/>
<path d="M27.6508 113.341V114.258C27.6508 115.014 28.3848 115.628 29.2853 115.628H42.3432C43.2438 115.628 43.9777 115.014 43.9777 114.258V113.341H27.6508Z" fill="#407BFF"/>
<path opacity="0.3" d="M27.6508 113.341V114.258C27.6508 115.014 28.3848 115.628 29.2853 115.628H42.3432C43.2438 115.628 43.9777 115.014 43.9777 114.258V113.341H27.6508Z" fill="white"/>
</g>
<defs>
<clipPath id="clip0_4_189">
<rect width="180" height="180" fill="white"/>
</clipPath>
</defs>
</svg>
